<?xml version="1.0" encoding="UTF-8"?>
<svg width="88px" height="83px" viewBox="0 0 88 83" version="1.1" xmlns="http://www.w3.org/2000/svg" xmlns:xlink="http://www.w3.org/1999/xlink">
    <!-- Generator: Sketch 46.2 (44496) - http://www.bohemiancoding.com/sketch -->
    <title>Group 4</title>
    <desc>Created with Sketch.</desc>
    <defs>
        <path d="M55.6428626,60 L64.916673,60 L64.916673,34.6153846 L55.6428626,34.6153846 L55.6428626,60 Z M23.1845261,60 L23.1845261,9.23076923 L28.9806576,9.23076923 L40.5729206,9.23076923 L46.3690521,9.23076923 L46.3690521,60 L23.1845261,60 Z M4.63690521,60 L13.9107156,60 L13.9107156,34.6153846 L4.63690521,34.6153846 L4.63690521,60 Z M30.1398839,6.92307692 L39.4136943,6.92307692 L39.4136943,2.30769231 L30.1398839,2.30769231 L30.1398839,6.92307692 Z M68.3943519,60 L67.2351256,60 L67.2351256,33.4615385 C67.2351256,32.8230769 66.7173379,32.3076923 66.0758993,32.3076923 L57.9613152,32.3076923 L57.9613152,28.8461538 C57.9613152,28.2076923 57.4435274,27.6923077 56.8020889,27.6923077 C56.1606503,27.6923077 55.6428626,28.2076923 55.6428626,28.8461538 L55.6428626,32.3076923 L54.4836363,32.3076923 C53.8421977,32.3076923 53.32441,32.8230769 53.32441,33.4615385 L53.32441,60 L48.6875047,60 L48.6875047,8.07692308 C48.6875047,7.43846154 48.169717,6.92307692 47.5282784,6.92307692 L41.7321469,6.92307692 L41.7321469,1.15384615 C41.7321469,0.515384615 41.2143592,0 40.5729206,0 L28.9806576,0 C28.339219,0 27.8214313,0.515384615 27.8214313,1.15384615 L27.8214313,6.92307692 L22.0252998,6.92307692 C21.3838612,6.92307692 20.8660735,7.43846154 20.8660735,8.07692308 L20.8660735,60 L16.2291682,60 L16.2291682,33.4615385 C16.2291682,32.8230769 15.7113805,32.3076923 15.0699419,32.3076923 L13.9107156,32.3076923 L13.9107156,28.8461538 C13.9107156,28.2076923 13.3929279,27.6923077 12.7514893,27.6923077 C12.1100508,27.6923077 11.592263,28.2076923 11.592263,28.8461538 L11.592263,32.3076923 L3.47767891,32.3076923 C2.83624036,32.3076923 2.31845261,32.8230769 2.31845261,33.4615385 L2.31845261,60 L1.1592263,60 C0.517787749,60 0,60.5153846 0,61.1538462 C0,61.7923077 0.517787749,62.3076923 1.1592263,62.3076923 L3.47767891,62.3076923 L15.0699419,62.3076923 L22.0252998,62.3076923 L47.5282784,62.3076923 L54.4836363,62.3076923 L66.0758993,62.3076923 L68.3943519,62.3076923 C69.0357905,62.3076923 69.5535782,61.7923077 69.5535782,61.1538462 C69.5535782,60.5153846 69.0357905,60 68.3943519,60 L68.3943519,60 Z" id="path-1"></path>
        <filter x="-23.0%" y="-22.5%" width="146.0%" height="151.4%" filterUnits="objectBoundingBox" id="filter-2">
            <feOffset dx="0" dy="2" in="SourceAlpha" result="shadowOffsetOuter1"></feOffset>
            <feGaussianBlur stdDeviation="5" in="shadowOffsetOuter1" result="shadowBlurOuter1"></feGaussianBlur>
            <feColorMatrix values="0 0 0 0 0.550505051   0 0 0 0 0.732065756   0 0 0 0 1  0 0 0 1 0" type="matrix" in="shadowBlurOuter1"></feColorMatrix>
        </filter>
        <path d="M17.3883946,0 L1.1592263,0 C0.517787749,0 1.77635684e-15,0.515384615 1.77635684e-15,1.15384615 C1.77635684e-15,1.79230769 0.517787749,2.30769231 1.1592263,2.30769231 L17.3883946,2.30769231 C18.0298331,2.30769231 18.5476209,1.79230769 18.5476209,1.15384615 C18.5476209,0.515384615 18.0298331,0 17.3883946,0" id="path-3"></path>
        <filter x="-86.3%" y="-606.7%" width="272.5%" height="1486.7%" filterUnits="objectBoundingBox" id="filter-4">
            <feOffset dx="0" dy="2" in="SourceAlpha" result="shadowOffsetOuter1"></feOffset>
            <feGaussianBlur stdDeviation="5" in="shadowOffsetOuter1" result="shadowBlurOuter1"></feGaussianBlur>
            <feColorMatrix values="0 0 0 0 0.550505051   0 0 0 0 0.732065756   0 0 0 0 1  0 0 0 1 0" type="matrix" in="shadowBlurOuter1"></feColorMatrix>
        </filter>
        <path d="M17.3883946,6.05769231 L1.1592263,6.05769231 C0.517787749,6.05769231 1.77635684e-15,6.57307692 1.77635684e-15,7.21153846 C1.77635684e-15,7.85 0.517787749,8.36538462 1.1592263,8.36538462 L17.3883946,8.36538462 C18.0298331,8.36538462 18.5476209,7.85 18.5476209,7.21153846 C18.5476209,6.57307692 18.0298331,6.05769231 17.3883946,6.05769231" id="path-5"></path>
        <filter x="-86.3%" y="-606.7%" width="272.5%" height="1486.7%" filterUnits="objectBoundingBox" id="filter-6">
            <feOffset dx="0" dy="2" in="SourceAlpha" result="shadowOffsetOuter1"></feOffset>
            <feGaussianBlur stdDeviation="5" in="shadowOffsetOuter1" result="shadowBlurOuter1"></feGaussianBlur>
            <feColorMatrix values="0 0 0 0 0.550505051   0 0 0 0 0.732065756   0 0 0 0 1  0 0 0 1 0" type="matrix" in="shadowBlurOuter1"></feColorMatrix>
        </filter>
        <path d="M17.3883946,12.1153846 L1.1592263,12.1153846 C0.517787749,12.1153846 1.77635684e-15,12.6307692 1.77635684e-15,13.2692308 C1.77635684e-15,13.9076923 0.517787749,14.4230769 1.1592263,14.4230769 L17.3883946,14.4230769 C18.0298331,14.4230769 18.5476209,13.9076923 18.5476209,13.2692308 C18.5476209,12.6307692 18.0298331,12.1153846 17.3883946,12.1153846" id="path-7"></path>
        <filter x="-86.3%" y="-606.7%" width="272.5%" height="1486.7%" filterUnits="objectBoundingBox" id="filter-8">
            <feOffset dx="0" dy="2" in="SourceAlpha" result="shadowOffsetOuter1"></feOffset>
            <feGaussianBlur stdDeviation="5" in="shadowOffsetOuter1" result="shadowBlurOuter1"></feGaussianBlur>
            <feColorMatrix values="0 0 0 0 0.550505051   0 0 0 0 0.732065756   0 0 0 0 1  0 0 0 1 0" type="matrix" in="shadowBlurOuter1"></feColorMatrix>
        </filter>
        <path d="M17.3883946,24.2307692 L1.1592263,24.2307692 C0.517787749,24.2307692 1.77635684e-15,24.7461538 1.77635684e-15,25.3846154 C1.77635684e-15,26.0230769 0.517787749,26.5384615 1.1592263,26.5384615 L17.3883946,26.5384615 C18.0298331,26.5384615 18.5476209,26.0230769 18.5476209,25.3846154 C18.5476209,24.7461538 18.0298331,24.2307692 17.3883946,24.2307692" id="path-9"></path>
        <filter x="-86.3%" y="-606.7%" width="272.5%" height="1486.7%" filterUnits="objectBoundingBox" id="filter-10">
            <feOffset dx="0" dy="2" in="SourceAlpha" result="shadowOffsetOuter1"></feOffset>
            <feGaussianBlur stdDeviation="5" in="shadowOffsetOuter1" result="shadowBlurOuter1"></feGaussianBlur>
            <feColorMatrix values="0 0 0 0 0.550505051   0 0 0 0 0.732065756   0 0 0 0 1  0 0 0 1 0" type="matrix" in="shadowBlurOuter1"></feColorMatrix>
        </filter>
        <path d="M17.3883946,18.1730769 L1.1592263,18.1730769 C0.517787749,18.1730769 1.77635684e-15,18.6884615 1.77635684e-15,19.3269231 C1.77635684e-15,19.9653846 0.517787749,20.4807692 1.1592263,20.4807692 L17.3883946,20.4807692 C18.0298331,20.4807692 18.5476209,19.9653846 18.5476209,19.3269231 C18.5476209,18.6884615 18.0298331,18.1730769 17.3883946,18.1730769" id="path-11"></path>
        <filter x="-86.3%" y="-606.7%" width="272.5%" height="1486.7%" filterUnits="objectBoundingBox" id="filter-12">
            <feOffset dx="0" dy="2" in="SourceAlpha" result="shadowOffsetOuter1"></feOffset>
            <feGaussianBlur stdDeviation="5" in="shadowOffsetOuter1" result="shadowBlurOuter1"></feGaussianBlur>
            <feColorMatrix values="0 0 0 0 0.550505051   0 0 0 0 0.732065756   0 0 0 0 1  0 0 0 1 0" type="matrix" in="shadowBlurOuter1"></feColorMatrix>
        </filter>
    </defs>
    <g id="Page-1" stroke="none" stroke-width="1" fill="none" fill-rule="evenodd">
        <g id="2_1_Mobile-Copy" transform="translate(-76.000000, -774.000000)">
            <g id="Group-4" transform="translate(85.000000, 782.000000)">
                <g id="Fill-16-Copy">
                    <use fill="black" fill-opacity="1" filter="url(#filter-2)" xlink:href="#path-1"></use>
                    <use fill="#FFFFFF" fill-rule="evenodd" xlink:href="#path-1"></use>
                </g>
                <g id="Group-3" transform="translate(25.232558, 30.692308)">
                    <g id="Fill-17-Copy">
                        <use fill="black" fill-opacity="1" filter="url(#filter-4)" xlink:href="#path-3"></use>
                        <use fill="#FFFFFF" fill-rule="evenodd" xlink:href="#path-3"></use>
                    </g>
                    <g id="Fill-18-Copy">
                        <use fill="black" fill-opacity="1" filter="url(#filter-6)" xlink:href="#path-5"></use>
                        <use fill="#FFFFFF" fill-rule="evenodd" xlink:href="#path-5"></use>
                    </g>
                    <g id="Fill-19-Copy">
                        <use fill="black" fill-opacity="1" filter="url(#filter-8)" xlink:href="#path-7"></use>
                        <use fill="#FFFFFF" fill-rule="evenodd" xlink:href="#path-7"></use>
                    </g>
                    <g id="Fill-21-Copy">
                        <use fill="black" fill-opacity="1" filter="url(#filter-10)" xlink:href="#path-9"></use>
                        <use fill="#FFFFFF" fill-rule="evenodd" xlink:href="#path-9"></use>
                    </g>
                    <g id="Fill-22-Copy">
                        <use fill="black" fill-opacity="1" filter="url(#filter-12)" xlink:href="#path-11"></use>
                        <use fill="#FFFFFF" fill-rule="evenodd" xlink:href="#path-11"></use>
                    </g>
                </g>
            </g>
        </g>
    </g>
</svg>