<?xml version="1.0" encoding="UTF-8"?>
<svg width="59px" height="60px" viewBox="0 0 59 60" version="1.1" xmlns="http://www.w3.org/2000/svg" xmlns:xlink="http://www.w3.org/1999/xlink">
    <!-- Generator: Sketch 46.2 (44496) - http://www.bohemiancoding.com/sketch -->
    <title>Group 11 Copy</title>
    <desc>Created with Sketch.</desc>
    <defs></defs>
    <g id="Page-1" stroke="none" stroke-width="1" fill="none" fill-rule="evenodd">
        <g id="2_1_Mobile-Copy" transform="translate(-91.000000, -903.000000)" fill="#F2F2F2">
            <g id="Group-11-Copy" transform="translate(90.000000, 902.000000)">
                <path d="M57.8636475,50.8831786 L3.33168893,58.4855595 L3.33168893,55.5996071 C6.12894871,55.1419881 8.19950523,52.746869 8.19950523,49.7723452 C8.19950523,46.7978214 6.12894871,44.4027024 3.33168893,43.9450833 L3.33168893,30.9472262 L57.8636475,23.3448452 L57.8636475,50.8831786 Z M33.88244,3.52329762 C43.5705995,3.67460714 57.140596,10.0148452 57.8015673,21.36675 L5.44606675,28.6665119 L33.88244,3.52329762 Z M33.5172625,1.54889286 C33.2835489,1.54889286 33.053487,1.63746429 32.8782018,1.79246429 L1.71395253,29.34925 C1.69934543,29.3640119 1.69569365,29.3824643 1.68108655,29.3972262 C1.62630993,29.4488929 1.58248862,29.511631 1.5423191,29.5780595 C1.51675667,29.6186548 1.48754247,29.6555595 1.46928359,29.6998452 C1.44372117,29.7625833 1.43276584,29.8327024 1.41815874,29.899131 C1.40720342,29.9544881 1.38894454,30.0024643 1.38894454,30.0578214 C1.38894454,30.0688929 1.38164099,30.0762738 1.38164099,30.0910357 L1.38164099,44.8529405 C1.38164099,45.3954405 1.81985401,45.8346071 2.35666496,45.8346071 C4.54042651,45.8346071 6.25310906,47.5654405 6.25310906,49.7723452 C6.25310906,51.97925 4.54042651,53.7100833 2.35666496,53.7100833 C1.81985401,53.7100833 1.38164099,54.14925 1.38164099,54.69175 L1.38164099,59.6148452 C1.38164099,59.8990119 1.50580135,60.1684167 1.71760431,60.356631 C1.89288951,60.511631 2.12295135,60.5965119 2.35666496,60.5965119 C2.40048626,60.5965119 2.44430756,60.5928214 2.48812887,60.589131 L58.9701354,52.7136548 C59.4521697,52.6472262 59.8100437,52.2338929 59.8100437,51.739369 L59.8100437,22.2155595 C59.8100437,8.73055952 44.5419717,1.54889286 33.5172625,1.54889286 L33.5172625,1.54889286 Z" id="Fill-6"></path>
                <path d="M50.0733156,29.1053095 C51.6837484,29.1053095 52.9947357,30.4301905 52.9947357,32.0576905 C52.9947357,33.6851905 51.6837484,35.0100714 50.0733156,35.0100714 C48.4628827,35.0100714 47.1518954,33.6851905 47.1518954,32.0576905 C47.1518954,30.4301905 48.4628827,29.1053095 50.0733156,29.1053095 M50.0733156,36.9770952 C52.7573703,36.9770952 54.9411319,34.7701905 54.9411319,32.0576905 C54.9411319,29.3451905 52.7573703,27.1382857 50.0733156,27.1382857 C47.3892608,27.1382857 45.2054993,29.3451905 45.2054993,32.0576905 C45.2054993,34.7701905 47.3892608,36.9770952 50.0733156,36.9770952" id="Fill-7"></path>
                <path d="M35.4662149,36.9785714 C36.5398368,36.9785714 37.412611,36.0965476 37.412611,35.0115476 C37.412611,33.9228571 36.5398368,33.0408333 35.4662149,33.0408333 C34.392593,33.0408333 33.5198187,33.9228571 33.5198187,35.0115476 C33.5198187,36.0965476 34.392593,36.9785714 35.4662149,36.9785714" id="Fill-8"></path>
                <path d="M45.2044037,42.8829643 C45.7412147,42.8829643 46.1794277,43.3258214 46.1794277,43.8683214 C46.1794277,44.4108214 45.7412147,44.8499881 45.2044037,44.8499881 C44.6675928,44.8499881 44.2293798,44.4108214 44.2293798,43.8683214 C44.2293798,43.3258214 44.6675928,42.8829643 45.2044037,42.8829643 M45.2044037,46.8207024 C46.8148366,46.8207024 48.1258239,45.4958214 48.1258239,43.8683214 C48.1258239,42.2408214 46.8148366,40.9159405 45.2044037,40.9159405 C43.5939709,40.9159405 42.2829836,42.2408214 42.2829836,43.8683214 C42.2829836,45.4958214 43.5939709,46.8207024 45.2044037,46.8207024" id="Fill-9"></path>
                <path d="M27.6758829,41.8990833 C29.8231267,41.8990833 31.572327,43.6668214 31.572327,45.8368214 C31.572327,48.0068214 29.8231267,49.770869 27.6758829,49.770869 C25.5286391,49.770869 23.7794388,48.0068214 23.7794388,45.8368214 C23.7794388,43.6668214 25.5286391,41.8990833 27.6758829,41.8990833 M27.6758829,51.7415833 C30.8967486,51.7415833 33.5187232,49.0918214 33.5187232,45.8368214 C33.5187232,42.578131 30.8967486,39.9320595 27.6758829,39.9320595 C24.4550172,39.9320595 21.8330426,42.578131 21.8330426,45.8368214 C21.8330426,49.0918214 24.4550172,51.7415833 27.6758829,51.7415833" id="Fill-10"></path>
                <path d="M15.9902024,34.0258214 C17.0638243,34.0258214 17.9365985,34.9078452 17.9365985,35.9928452 C17.9365985,37.0815357 17.0638243,37.9635595 15.9902024,37.9635595 C14.9165805,37.9635595 14.0438062,37.0815357 14.0438062,35.9928452 C14.0438062,34.9078452 14.9165805,34.0258214 15.9902024,34.0258214 M15.9902024,39.9305833 C18.1374462,39.9305833 19.8866465,38.1628452 19.8866465,35.9928452 C19.8866465,33.8228452 18.1374462,32.0587976 15.9902024,32.0587976 C13.8429586,32.0587976 12.0937583,33.8228452 12.0937583,35.9928452 C12.0937583,38.1628452 13.8429586,39.9305833 15.9902024,39.9305833" id="Fill-11"></path>
            </g>
        </g>
    </g>
</svg>