<?xml version="1.0" encoding="UTF-8"?>
<svg width="59px" height="58px" viewBox="0 0 59 58" version="1.1" xmlns="http://www.w3.org/2000/svg" xmlns:xlink="http://www.w3.org/1999/xlink">
    <!-- Generator: Sketch 46.2 (44496) - http://www.bohemiancoding.com/sketch -->
    <title>Group 13 Copy</title>
    <desc>Created with Sketch.</desc>
    <defs></defs>
    <g id="Page-1" stroke="none" stroke-width="1" fill="none" fill-rule="evenodd">
        <g id="2_1_Mobile-Copy" transform="translate(-91.000000, -1030.000000)" fill="#F2F2F2">
            <g id="Group-13-Copy" transform="translate(90.000000, 1029.000000)">
                <path d="M56.6908858,1.24468439 L4.25471421,1.24468439 C2.64926105,1.24468439 1.34159357,2.5645072 1.34159357,4.18488372 L1.34159357,39.4672757 C1.34159357,41.0876523 2.64926105,42.4074751 4.25471421,42.4074751 L21.7334381,42.4074751 C22.270747,42.4074751 22.7044783,41.9697121 22.7044783,41.4274086 C22.7044783,40.8851052 22.270747,40.4473422 21.7334381,40.4473422 L4.25471421,40.4473422 C3.72064209,40.4473422 3.283674,40.0095792 3.283674,39.4672757 L3.283674,4.18488372 C3.283674,3.64258029 3.72064209,3.20481728 4.25471421,3.20481728 L56.6908858,3.20481728 C57.224958,3.20481728 57.661926,3.64258029 57.661926,4.18488372 L57.661926,39.4672757 C57.661926,40.0095792 57.224958,40.4473422 56.6908858,40.4473422 L52.806725,40.4473422 C52.2694161,40.4473422 51.8356848,40.8851052 51.8356848,41.4274086 C51.8356848,41.9697121 52.2694161,42.4074751 52.806725,42.4074751 L56.6908858,42.4074751 C58.296339,42.4074751 59.6040065,41.0876523 59.6040065,39.4672757 L59.6040065,4.18488372 C59.6040065,2.5645072 58.296339,1.24468439 56.6908858,1.24468439" id="Fill-23"></path>
                <path d="M52.806725,36.5270764 C52.2694161,36.5270764 51.8356848,36.9648394 51.8356848,37.5071429 C51.8356848,38.0494463 52.2694161,38.4872093 52.806725,38.4872093 L55.7198456,38.4872093 L55.7198456,5.16495017 L5.22575443,5.16495017 L5.22575443,38.4872093 L21.7334381,38.4872093 C22.270747,38.4872093 22.7044783,38.0494463 22.7044783,37.5071429 C22.7044783,36.9648394 22.270747,36.5270764 21.7334381,36.5270764 L7.16783486,36.5270764 L7.16783486,7.12508306 L53.7777652,7.12508306 L53.7777652,36.5270764 L52.806725,36.5270764 Z" id="Fill-24"></path>
                <path d="M30.471829,56.1284053 L44.066392,56.1284053 L44.066392,32.6068106 L30.471829,32.6068106 L30.471829,56.1284053 Z M28.5297486,58.0885382 L46.0084724,58.0885382 L46.0084724,30.6466777 L28.5297486,30.6466777 L28.5297486,58.0885382 Z" id="Fill-25"></path>
                <path d="M33.3859207,36.5270764 C32.8486117,36.5270764 32.4148805,36.9648394 32.4148805,37.5071429 C32.4148805,38.0494463 32.8486117,38.4872093 33.3859207,38.4872093 C33.9232296,38.4872093 34.3569609,38.0494463 34.3569609,37.5071429 C34.3569609,36.9648394 33.9232296,36.5270764 33.3859207,36.5270764" id="Fill-26"></path>
                <path d="M37.2700815,36.5270764 C36.7327726,36.5270764 36.2990413,36.9648394 36.2990413,37.5071429 C36.2990413,38.0494463 36.7327726,38.4872093 37.2700815,38.4872093 C37.8073904,38.4872093 38.2411217,38.0494463 38.2411217,37.5071429 C38.2411217,36.9648394 37.8073904,36.5270764 37.2700815,36.5270764" id="Fill-27"></path>
                <path d="M33.3859207,42.4074751 C32.8486117,42.4074751 32.4148805,42.8452381 32.4148805,43.3875415 C32.4148805,43.929845 32.8486117,44.367608 33.3859207,44.367608 C33.9232296,44.367608 34.3569609,43.929845 34.3569609,43.3875415 C34.3569609,42.8452381 33.9232296,42.4074751 33.3859207,42.4074751" id="Fill-28"></path>
                <path d="M37.2700815,42.4074751 C36.7327726,42.4074751 36.2990413,42.8452381 36.2990413,43.3875415 C36.2990413,43.929845 36.7327726,44.367608 37.2700815,44.367608 C37.8073904,44.367608 38.2411217,43.929845 38.2411217,43.3875415 C38.2411217,42.8452381 37.8073904,42.4074751 37.2700815,42.4074751" id="Fill-29"></path>
                <path d="M33.3859207,48.2878738 C32.8486117,48.2878738 32.4148805,48.7256368 32.4148805,49.2679402 C32.4148805,49.8102436 32.8486117,50.2480066 33.3859207,50.2480066 C33.9232296,50.2480066 34.3569609,49.8102436 34.3569609,49.2679402 C34.3569609,48.7256368 33.9232296,48.2878738 33.3859207,48.2878738" id="Fill-30"></path>
                <path d="M37.2700815,48.2878738 C36.7327726,48.2878738 36.2990413,48.7256368 36.2990413,49.2679402 C36.2990413,49.8102436 36.7327726,50.2480066 37.2700815,50.2480066 C37.8073904,50.2480066 38.2411217,49.8102436 38.2411217,49.2679402 C38.2411217,48.7256368 37.8073904,48.2878738 37.2700815,48.2878738" id="Fill-31"></path>
                <path d="M41.1542424,36.5270764 C40.6169335,36.5270764 40.1832022,36.9648394 40.1832022,37.5071429 C40.1832022,38.0494463 40.6169335,38.4872093 41.1542424,38.4872093 C41.6915513,38.4872093 42.1252826,38.0494463 42.1252826,37.5071429 C42.1252826,36.9648394 41.6915513,36.5270764 41.1542424,36.5270764" id="Fill-32"></path>
                <path d="M41.1542424,42.4074751 C40.6169335,42.4074751 40.1832022,42.8452381 40.1832022,43.3875415 C40.1832022,43.929845 40.6169335,44.367608 41.1542424,44.367608 C41.6915513,44.367608 42.1252826,43.929845 42.1252826,43.3875415 C42.1252826,42.8452381 41.6915513,42.4074751 41.1542424,42.4074751" id="Fill-33"></path>
                <path d="M41.1542424,48.2878738 C40.6169335,48.2878738 40.1832022,48.7256368 40.1832022,49.2679402 C40.1832022,49.8102436 40.6169335,50.2480066 41.1542424,50.2480066 C41.6915513,50.2480066 42.1252826,49.8102436 42.1252826,49.2679402 C42.1252826,48.7256368 41.6915513,48.2878738 41.1542424,48.2878738" id="Fill-34"></path>
                <path d="M43.2481288,22.695072 C43.5588616,22.695072 43.8631209,22.5447951 44.0508554,22.2638427 C44.3551146,21.8162791 44.235353,21.205371 43.7919113,20.9048173 C39.8883296,18.2390365 34.6511861,18.2390365 30.7476044,20.9048173 C30.3041627,21.205371 30.1876379,21.8162791 30.4886603,22.2638427 C30.7896828,22.7114064 31.3917277,22.8290144 31.8351694,22.5251938 C35.0881542,20.3069767 39.4545983,20.3069767 42.7043463,22.5251938 C42.8694231,22.6395349 43.0603943,22.695072 43.2481288,22.695072" id="Fill-35"></path>
                <path d="M27.7949948,16.0394408 C27.3547899,16.3497951 27.2512123,16.9607032 27.5587083,17.405 C27.8662044,17.8492968 28.4747229,17.9538372 28.911691,17.6434828 C33.9125481,14.0956423 40.6321464,14.0956423 45.6297667,17.6434828 C45.7980804,17.7643577 45.9955252,17.8198948 46.1864965,17.8198948 C46.4939925,17.8198948 46.7917782,17.6761517 46.9827494,17.405 C47.2902455,16.9607032 47.1866679,16.3497951 46.746463,16.0394408 C41.0788249,12.0179014 33.4626328,12.0146346 27.7949948,16.0394408" id="Fill-36"></path>
                <path d="M33.7445582,25.7809745 C33.2849325,26.0619269 33.1425133,26.6663012 33.4208781,27.1269324 C33.6960062,27.5908306 34.2980511,27.7345736 34.75444,27.4536213 C36.3081044,26.4996899 38.230764,26.4996899 39.7876651,27.4536213 C39.9430316,27.5516279 40.1178188,27.5973643 40.292606,27.5973643 C40.6162861,27.5973643 40.9367294,27.430753 41.121227,27.1269324 C41.3995919,26.6663012 41.2539359,26.0619269 40.7943102,25.7809745 C38.6224169,24.4415504 35.9164515,24.4415504 33.7445582,25.7809745" id="Fill-37"></path>
            </g>
        </g>
    </g>
</svg>