<?xml version="1.0" encoding="UTF-8"?>
<svg width="1170px" height="449px" viewBox="0 0 1170 449" version="1.1" xmlns="http://www.w3.org/2000/svg" xmlns:xlink="http://www.w3.org/1999/xlink">
    <!-- Generator: Sketch 46.2 (44496) - http://www.bohemiancoding.com/sketch -->
    <title>icon-dollar</title>
    <desc>Created with Sketch.</desc>
    <defs>
        <path d="M1187.68758,49.5530276 C1182.14358,70.6421354 1160.54701,83.240391 1139.44965,77.6901106 C1118.36207,72.1378724 1105.76081,50.5358286 1111.30873,29.4467207 C1116.85665,8.36152843 1138.46104,-4.24064268 1159.5545,1.30963774 C1180.6499,6.86187594 1193.24333,28.4639197 1187.68758,49.5530276 Z M1154.10092,47.496353 C1154.10092,49.3381876 1153.31941,50.5102641 1150.97486,50.5102641 C1148.23955,50.5102641 1144.83437,49.2265612 1142.60147,46.3800896 L1137.52161,52.463725 C1138.91718,55.5334493 1142.54565,57.5427233 1146.45323,58.3799209 L1146.45323,63.7937982 L1154.82662,63.7937982 L1154.82662,58.3799209 C1160.12976,57.0404048 1163.59076,52.9102303 1163.59076,47.3847267 C1163.59076,34.6593242 1147.29057,36.222093 1147.29057,29.7477654 C1147.29057,27.961744 1148.57449,26.8454807 1151.75637,26.8454807 C1154.65915,26.8454807 1155.94307,27.8501177 1157.67357,29.4686996 L1162.47431,22.7711194 C1160.68799,20.8734716 1158.06433,19.4781424 1154.82662,18.8641976 L1154.82662,14.1200782 L1146.45323,14.1200782 L1146.45323,19.1432634 C1141.15008,20.7060321 1137.80073,25.0036461 1137.80073,29.7477654 C1137.80073,42.3615415 1154.10092,41.6359703 1154.10092,47.496353 Z" id="path-1"></path>
        <filter x="-16.5%" y="-13.9%" width="132.9%" height="132.9%" filterUnits="objectBoundingBox" id="filter-2">
            <feOffset dx="0" dy="2" in="SourceAlpha" result="shadowOffsetOuter1"></feOffset>
            <feGaussianBlur stdDeviation="4" in="shadowOffsetOuter1" result="shadowBlurOuter1"></feGaussianBlur>
            <feColorMatrix values="0 0 0 0 0   0 0 0 0 0.129411765   0 0 0 0 0.403921569  0 0 0 0.594146286 0" type="matrix" in="shadowBlurOuter1"></feColorMatrix>
        </filter>
        <linearGradient x1="100%" y1="0%" x2="2.55102041%" y2="95.2433443%" id="linearGradient-3">
            <stop stop-color="#FFFFFF" offset="0%"></stop>
            <stop stop-color="#FFFFFF" stop-opacity="0" offset="100%"></stop>
        </linearGradient>
    </defs>
    <g id="Page-1" stroke="none" stroke-width="1" fill="none" fill-rule="evenodd">
        <g id="1_2" transform="translate(-85.000000, -34.000000)">
            <g id="icon-dollar" transform="translate(58.000000, 40.000000)">
                <g id="Group">
                    <g id="Combined-Shape">
                        <use fill="black" fill-opacity="1" filter="url(#filter-2)" xlink:href="#path-1"></use>
                        <use fill="#FFFFFF" fill-rule="evenodd" xlink:href="#path-1"></use>
                    </g>
                    <polyline id="Path-5" stroke="url(#linearGradient-3)" stroke-width="4" opacity="0.550724638" points="0 464 151.351171 341 210.140468 364 286.441472 302 399.016722 341 535.35786 237 629.170569 275 717.979933 184 768.013378 214 885.591973 105 989.411371 154 1122 56"></polyline>
                </g>
            </g>
        </g>
    </g>
</svg>