<?xml version="1.0" encoding="UTF-8"?>
<svg width="59px" height="46px" viewBox="0 0 59 46" version="1.1" xmlns="http://www.w3.org/2000/svg" xmlns:xlink="http://www.w3.org/1999/xlink">
    <!-- Generator: Sketch 46.2 (44496) - http://www.bohemiancoding.com/sketch -->
    <title>Group 12 Copy</title>
    <desc>Created with Sketch.</desc>
    <defs></defs>
    <g id="Page-1" stroke="none" stroke-width="1" fill="none" fill-rule="evenodd">
        <g id="2_1_Mobile-Copy" transform="translate(-211.000000, -910.000000)" fill="#F2F2F2">
            <g id="Group-12-Copy" transform="translate(210.000000, 910.000000)">
                <path d="M47.3443119,29.7995387 L57.285869,29.7995387 L57.285869,25.3618155 C55.52126,25.3618155 53.7635983,25.3163542 52.0094102,25.3897917 C51.5439424,25.4107738 50.9812128,25.6765476 50.6546906,26.019256 C49.5361786,27.20125 48.501034,28.4636756 47.3443119,29.7995387 L47.3443119,29.7995387 Z M13.3269574,29.8135268 C12.2570763,28.5441071 11.305299,27.3691071 10.3083644,26.2360714 C9.76300298,25.6205952 9.02659134,25.3338393 8.20333871,25.3233482 C7.22724593,25.3058631 6.25115315,25.3128571 5.27158672,25.3128571 C4.64633156,25.3093601 4.01760276,25.3128571 3.42013671,25.3128571 L3.42013671,29.8135268 L13.3269574,29.8135268 Z M9.52679547,14.5455208 C23.456091,12.9998363 37.2707565,12.9928423 51.1583684,14.5455208 C49.6230196,10.8596577 47.9035679,7.31717262 45.260128,4.33071429 C44.8780277,3.89708333 44.2631934,3.60333333 43.7004638,3.42848214 C42.9779467,3.2011756 42.2067987,3.10675595 41.4460715,3.0403125 C35.9611943,2.53674107 30.4589489,2.57870536 24.9601771,2.72208333 C22.733574,2.77803571 20.5139181,3.00883929 18.287315,3.14872024 C16.7276508,3.25013393 15.452825,3.88309524 14.6260987,5.2434375 C13.3165365,7.39061012 12.0173952,9.54127976 10.7807794,11.7269196 C10.2805753,12.6081696 9.94710589,13.5838393 9.52679547,14.5455208 L9.52679547,14.5455208 Z M3.50697771,32.0970833 C3.70844882,33.1147173 3.88213081,33.9889732 4.0558128,34.8667262 C4.15307471,35.3353274 4.41012405,35.5101786 4.91032818,35.5031845 C6.75830456,35.4717113 8.60628093,35.4891964 10.4542573,35.4926935 C11.9166596,35.4996875 13.4381139,35.2688839 14.8275698,35.5976042 C16.2170257,35.9263244 17.4605888,36.8460417 18.7909928,37.4615179 C19.1765668,37.6398661 19.6350873,37.7552679 20.0588713,37.7552679 C25.665326,37.77625 31.2683069,37.769256 36.8747616,37.769256 C38.3614794,37.7657589 39.9037755,38.0035565 41.3140732,37.6713393 C42.7035291,37.3461161 43.9436186,36.4159077 45.270549,35.7934375 C45.6387548,35.6185863 46.0729597,35.5066815 46.4793756,35.5031845 C49.5778623,35.4822024 52.6798226,35.4856994 55.7783093,35.4961905 C56.1465152,35.4961905 56.4765109,35.4717113 56.5702992,35.0485714 C56.7821912,34.100878 56.9732414,33.1496875 57.1886071,32.1040774 L56.3653545,32.1040774 C52.7354009,32.1005804 49.1054473,32.0970833 45.4720201,32.1005804 C44.8606595,32.1005804 44.2666671,32.0935863 43.9609868,31.4186607 C43.6483592,30.7367411 44.0651959,30.289122 44.45077,29.8240179 C45.6491757,28.383244 46.8753705,26.9634524 48.0320926,25.4842113 C49.3659703,23.7776637 51.0541592,22.938378 53.2182368,23.0293006 C54.4374844,23.0782589 55.6636792,23.0362946 56.9037686,23.0362946 C56.8864004,22.8999107 56.8898741,22.8369643 56.8690322,22.7775149 C56.7960858,22.5781845 56.7196657,22.3788542 56.6328247,22.1865179 C55.8512558,20.451994 54.6736919,19.0322024 53.1730795,17.9026637 C52.6346653,17.4970089 51.9712001,17.1647917 51.3146822,17.0214137 C47.5666249,16.2101042 43.7456211,15.9548214 39.928091,15.895372 C33.4983837,15.7904613 27.0617292,15.7694792 20.6354955,15.9023661 C17.2903804,15.9758036 13.9556862,16.4304167 10.620992,16.773125 C9.7907921,16.8605506 8.86680391,16.9899405 8.18944415,17.4270685 C6.25810042,18.6650149 4.79569807,20.3785565 3.90644628,22.5397173 C3.84739441,22.6830952 3.82307893,22.8404613 3.77097433,23.0432887 C5.24032397,23.0432887 6.6402008,23.0362946 8.04007764,23.0432887 C9.60668919,23.0502827 10.9787769,23.5888244 12.0104479,24.7708185 C13.5631649,26.5543006 15.0672509,28.383244 16.5400742,30.2331696 C16.7554399,30.5059375 16.8283863,31.0829464 16.6894407,31.3976786 C16.5504951,31.7089137 16.0746065,31.8837649 15.7272425,32.0795982 C15.6126124,32.1460417 15.4354568,32.0970833 15.2860903,32.0970833 L5.02843194,32.0970833 L3.50697771,32.0970833 L3.50697771,32.0970833 Z M30.3408451,0.232202381 C34.2452162,0.438526786 38.1461137,0.623869048 42.0435376,0.858169643 C42.8424747,0.907127976 43.6657274,1.02252976 44.4125599,1.29529762 C45.173287,1.56806548 45.9583296,1.94924107 46.5384275,2.49127976 C48.4002984,4.22230655 49.7237552,6.38696429 50.8457408,8.64254464 C51.905201,10.7722321 52.7597164,13.0068304 53.7253882,15.1854762 C53.8469656,15.458244 54.0727522,15.7100298 54.3089597,15.895372 C56.3445126,17.4865179 58.0049124,19.3784077 58.9011115,21.8368155 C59.2345809,22.7460417 59.5020512,23.7322024 59.533314,24.6938839 C59.6409968,27.939122 59.6896277,31.1948512 59.0087943,34.398125 C58.8559542,35.1150149 58.5676421,35.8249107 58.230699,36.4788542 C57.7756522,37.3670982 57.0010305,37.779747 55.9832541,37.772753 C52.9472929,37.7587649 49.9113317,37.7622619 46.8753705,37.779747 C46.5314802,37.783244 46.1875899,37.9336161 45.8471732,38.0175446 C45.8263313,38.0210417 45.8054895,38.0315327 45.7881213,38.0420238 C43.2523642,39.7380804 40.4734524,40.1437351 37.4513858,40.0598065 C31.5114617,39.8954464 25.5611168,40.0213393 19.6177191,40.0003571 C19.1105677,39.9968601 18.5999426,39.7905357 18.1032121,39.6436607 C17.8426891,39.5632292 17.5891134,39.4268452 17.3633268,39.2729762 C15.4146149,37.9650893 13.2783264,37.5909077 10.9579351,37.7377827 C8.94669763,37.8671726 6.92503927,37.7307887 4.90685454,37.783244 C3.57992414,37.8182143 2.64898868,37.2342113 2.2321519,36.0382292 C1.81531513,34.842247 1.45753023,33.5798214 1.36026831,32.3208929 C1.16921813,29.8764732 1.09627169,27.4110714 1.13100809,24.9561607 C1.17616541,22.1025893 2.51699037,19.7630804 4.3962295,17.7138244 C4.88601271,17.1822768 5.40705868,16.6647173 5.98715652,16.2380804 C6.61588532,15.7799702 6.9632493,15.2134524 7.22029865,14.4755804 C8.49512445,10.8037054 10.3431008,7.43607143 12.5558094,4.24678571 C14.0598954,2.0716369 16.0433437,0.966577381 18.6381527,0.840684524 C22.5355765,0.651845238 26.436474,0.438526786 30.3408451,0.232202381 L30.3408451,0.232202381 Z" id="Fill-12"></path>
                <path d="M46.1146434,40.4297917 L46.1146434,43.3882738 L55.0766341,43.3882738 L55.0766341,40.0556101 C55.8651503,40.0171429 56.5737728,39.9786756 57.3275527,39.9437054 C57.3275527,41.206131 57.4004991,42.4650595 57.3101845,43.713497 C57.2233435,44.9059821 56.2437771,45.6718304 54.9550567,45.6823214 C53.0028711,45.6998065 51.0506856,45.6893155 49.0985,45.6893155 C48.1432491,45.6893155 47.1879981,45.7033036 46.2327472,45.6858185 C44.7564503,45.6543452 43.9644604,44.731131 43.8185675,43.269375 C43.6865692,41.9475 44.0651959,41.1222024 45.3608636,40.769003 C45.5762293,40.7095536 45.7777004,40.5836607 46.1146434,40.4297917" id="Fill-13"></path>
                <path d="M3.39825278,39.9454539 C4.12771714,39.9804241 4.8224451,40.0118973 5.59706677,40.0503646 L5.59706677,43.3935193 L14.5833729,43.3935193 L14.5833729,40.407061 C15.354521,40.7952307 16.0145125,41.1169568 16.6606095,41.4596652 C16.7509242,41.5086235 16.8308179,41.6589955 16.8308179,41.7639062 C16.8342915,42.466808 16.8829225,43.1802009 16.7856605,43.8726116 C16.6571359,44.813311 15.8720933,45.5127158 14.9307369,45.6421057 C14.5972675,45.691064 14.2533771,45.687567 13.9164341,45.687567 C11.2417314,45.691064 8.5670288,45.694561 5.89232615,45.687567 C4.22497905,45.6805729 3.34267455,44.7818378 3.34267455,43.1032664 C3.33920091,42.0996205 3.34614819,41.0959747 3.34962182,40.0888318 C3.34962182,40.0503646 3.37741094,40.0118973 3.39825278,39.9454539" id="Fill-14"></path>
                <path d="M20.4694556,27.5719345 C20.5319811,27.7153125 20.542402,27.781756 20.580612,27.8272173 C21.6921768,29.1735714 22.7967942,30.5234226 23.9326744,31.8522917 C24.0681464,32.0096577 24.370353,32.0900893 24.5961396,32.0900893 C28.4345116,32.1075744 32.2728836,32.1075744 36.1147292,32.0865923 C36.3648313,32.0865923 36.6844061,31.9292262 36.8511408,31.7368899 C37.8932328,30.5269196 38.9005883,29.2889732 39.9183648,28.0580208 C40.0260476,27.9251339 40.1094149,27.7712649 40.2414133,27.5719345 L20.4694556,27.5719345 Z M30.3415398,25.3093601 C33.5477094,25.3093601 36.7573525,25.3233482 39.9635221,25.298869 C41.0368768,25.291875 41.8879185,25.6170982 42.3533863,26.6382292 C42.8119067,27.641875 42.4992791,28.4881548 41.8219194,29.2854762 C40.5922509,30.733244 39.3868979,32.198497 38.1954394,33.670744 C37.8168127,34.1393452 37.3930286,34.3596577 36.7781944,34.3561607 C32.4882492,34.3386756 28.2017777,34.3421726 23.9118326,34.3596577 C23.3282611,34.3631548 22.9079507,34.1813095 22.5397449,33.7231994 C21.3066027,32.198497 20.0560924,30.6877827 18.7916875,29.1875595 C18.1455905,28.4182143 17.9059094,27.5859226 18.3366407,26.6417262 C18.7743193,25.6765476 19.5593619,25.298869 20.5945066,25.3023661 C23.8458334,25.3163542 27.0936866,25.3093601 30.3415398,25.3093601 L30.3415398,25.3093601 Z" id="Fill-15"></path>
            </g>
        </g>
    </g>
</svg>