<svg xmlns="http://www.w3.org/2000/svg" width="58" height="51" viewBox="0 0 58 51"><path fill="#f2f2f2" d="M7.91 36.65h11.46v-7.72H7.91zM20.33 27c.53 0 .96.43.96.96v9.66c0 .53-.43.96-.96.96H6.95a.96.96 0 0 1-.95-.96v-9.66c0-.53.43-.96.95-.96zM22.91 13.65h11.47V5.93H22.91zM35.33 4c.53 0 .96.43.96.97v9.65c0 .53-.43.96-.96.96H21.96a.96.96 0 0 1-.96-.96V4.97c0-.54.43-.97.96-.97z"/><path fill="#f2f2f2" d="M55.41 48.26H32.48V44.4c0-1.06.86-1.93 1.92-1.93h19.1c1.06 0 1.91.87 1.91 1.93zM34.4 27.03c0-1.07.85-1.93 1.91-1.93h15.28c1.06 0 1.91.86 1.91 1.93v13.51H34.4zM24.31 25.1a3.8 3.8 0 0 0-3.29-1.93H17.2v-1.93c0-1.07.85-1.94 1.91-1.94h19.11c1.05 0 1.91.87 1.91 1.94v1.93h-3.82c-1.41 0-2.63.78-3.3 1.93zM3.82 40.54V27.03c0-1.07.86-1.93 1.91-1.93h15.29c1.05 0 1.91.86 1.91 1.93v13.51zm21.02 7.72H1.91V44.4c0-1.06.86-1.93 1.91-1.93h19.11c1.06 0 1.91.87 1.91 1.93zm-5.73-44.4c0-1.06.86-1.93 1.91-1.93h15.29c1.05 0 1.91.87 1.91 1.93v13.51H19.11zm36.3 23.17a3.84 3.84 0 0 0-3.82-3.86h-9.55v-1.93c0-1.43-.77-2.66-1.91-3.33V3.86A3.85 3.85 0 0 0 36.31 0H21.02a3.84 3.84 0 0 0-3.82 3.86v14.05a3.85 3.85 0 0 0-1.91 3.33v1.93H5.73a3.85 3.85 0 0 0-3.82 3.86v14.05A3.87 3.87 0 0 0 0 44.4v4.83c0 .53.43.96.96.96H25.8c.52 0 .95-.43.95-.96V44.4c0-1.42-.77-2.65-1.91-3.32V27.03h7.64v14.05a3.87 3.87 0 0 0-1.91 3.32v4.83c0 .53.43.96.96.96h24.84c.53 0 .96-.43.96-.96V44.4c0-1.42-.78-2.65-1.92-3.32z"/><path fill="#f2f2f2" d="M38.91 36.65h11.46v-7.72H38.91zM51.33 27c.53 0 .96.43.96.96v9.66c0 .53-.43.96-.96.96H37.95a.96.96 0 0 1-.95-.96v-9.66c0-.53.43-.96.95-.96z"/></svg>